<?xml version="1.0" encoding="UTF-8"?>
<svg id="Capa_1" xmlns="http://www.w3.org/2000/svg" version="1.1" viewBox="0 0 180 180">
  <!-- Generator: Adobe Illustrator 30.2.1, SVG Export Plug-In . SVG Version: 2.1.1 Build 1)  -->
  <defs>
    <style>
      .st0 {
        fill: #1d1d1b;
      }

      .st1 {
        fill: #fff;
      }

      .st2 {
        fill: none;
      }
    </style>
  </defs>
  <rect class="st2" width="180" height="180"/>
  <rect class="st2" width="180" height="180" rx="37" ry="37"/>
  <g>
    <g>
      <path d="M39.24,117.61c.47-7.16.92-14.05,1.38-21.11-.62-.05-1.15-.13-1.69-.14-3.08-.04-6.15-.06-9.23-.1-3.48-.05-4.78-1.7-3.87-5.01.39-1.42.87-2.84,1.52-4.15,4.04-8.12,8.19-16.19,12.2-24.33,1.19-2.41,2.84-3.5,5.56-3.45,12.56.24,25.13.4,37.69.52,2.37.02,3.92.96,5.08,3.01,5.28,9.32,10.65,18.6,15.98,27.89.23.4.47.8.66,1.22,1.24,2.74-.24,5.18-3.27,5.23-3.54.06-7.08-.02-10.62-.04-.55,0-1.11,0-1.77,0v19.56h15.54c-.04-.73,0-1.29-.11-1.83-.76-3.84.32-7.26,2.58-10.28,1.93-2.58,4.1-4.98,6.19-7.44,3.52-4.16,5.69-8.97,6.8-14.28.17-.79.14-1.63.18-2.45.02-.39-.03-.77-.38-1.29-.84,1.42-1.67,2.85-2.51,4.27-.46.8-.86,1.64-1.39,2.39-1.06,1.48-2.75,1.92-4.19,1.18-1.49-.76-2.24-2.53-1.43-4.22,1.12-2.35,2.49-4.59,3.77-6.87.25-.44.54-.86,1.08-1.7-3.08,1.15-5.7,2.16-7.63,4.44-.33.39-.62.82-.97,1.19-1.23,1.3-2.99,1.56-4.32.68-1.4-.93-1.95-2.78-.92-4.35,1-1.52,2.22-2.98,3.62-4.12,2.78-2.26,6.06-3.6,9.55-4.43.35-.08.7-.15,1.05-.25.08-.02.14-.12.28-.26-1.78-1.92-4.06-2.62-6.52-2.44-2.54.18-5.06.49-6.84,2.85-.99,1.32-2.78,1.33-4.05.47-1.29-.87-1.76-2.55-1.05-4.11.93-2.06,2.52-3.49,4.61-4.29,5.6-2.16,12.55-2.59,18.32,2.47.39-.36.78-.72,1.18-1.09,2.7-2.49,5.89-4.07,9.39-5.05,2.09-.58,3.87.26,4.42,1.97.56,1.75-.36,3.39-2.37,4.24-1.65.7-3.33,1.33-4.9,2.18-1.04.56-1.9,1.45-2.76,2.38,3.92-1,7.74-.86,11.4.53,2.17.83,4.23,2.04,6.16,3.35,2.02,1.37,2.4,3.5,1.24,5.04-1.19,1.58-3.21,1.72-5.18.17-2.43-1.92-5.15-2.91-8.22-2.99-.38-.01-.77.06-1.56.13.79.41,1.22.63,1.65.85,4.26,2.13,6.78,5.69,8.13,10.14.57,1.86-.29,3.58-1.91,4.18-1.56.58-3.22-.11-4.11-1.8-.5-.95-.86-1.97-1.35-2.93-.94-1.86-2.4-3.14-4.55-4.03-.06.73-.13,1.31-.16,1.89-.43,7.22-3.39,13.45-7.66,19.11-1.66,2.21-3.59,4.22-5.44,6.28-2.56,2.86-3.51,6.07-2.14,9.97.43,0,.98,0,1.53,0,12.21-.13,24.41-.27,36.62-.4.72,0,1.45-.03,2.15.09,1.6.27,2.71,1.56,2.76,3.06.05,1.45-.89,2.75-2.43,3.15-.73.19-1.52.23-2.28.24-34.62.44-69.23.86-103.85,1.29-4.46.06-8.92.15-13.38.23-.36,0-.72.01-1.08,0-2.41-.06-3.93-1.26-4.02-3.16-.09-1.95,1.39-3.36,3.88-3.46,2.56-.1,5.12-.02,7.94-.02ZM95.88,90.52c-.11-.42-.12-.58-.19-.7-4.3-7.52-8.59-15.05-12.95-22.53-.26-.44-1.04-.82-1.59-.82-11.49-.17-22.97-.27-34.46-.43-1.04-.01-1.55.33-1.99,1.23-3.52,7.06-7.09,14.1-10.64,21.15-.19.38-.31.79-.51,1.3,20.87.27,41.52.54,62.34.8ZM69.03,97.22c.08.75.14,1.31.19,1.86.52,6.29-2.52,10.3-8.78,11.13-2.57.34-5.22.15-7.82.03-2.02-.1-4.04-.46-6.23-.73-.17,2.73-.33,5.29-.48,7.72h25.53c-.09-.65-.17-1.05-.19-1.45-.15-2.2-.39-4.39-.39-6.59,0-1.89,1.34-3.21,2.99-3.33,1.65-.12,3.06,1.08,3.4,2.92.11.6.14,1.22.2,1.83.19,2.08.38,4.16.56,6.22h4.06v-19.63h-5.68c2,2.11,2.27,3.7.93,5.12-1.16,1.22-3.13,1.32-4.25.07-.48-.53-.99-1.41-.88-2.01.21-1.11.87-2.13,1.32-3.16h-4.49ZM47.21,97.18c-.07,1.18-.1,2.1-.18,3.01-.24,2.62-.26,2.77,2.37,3,3.49.3,7.01.39,10.52.42,1.19,0,2.41-.58,2.59-1.96.16-1.25.03-2.55-.08-3.81-.02-.24-.54-.62-.83-.62-4.74-.04-9.48-.03-14.38-.03Z"/>
      <path d="M55.73,69.19c1.17.29,3.31.63,5.31,1.37,2.44.9,4.75,1.09,7.13-.06.49-.24,1.08-.34,1.64-.37,1.53-.07,2.86.92,3.22,2.33.39,1.52-.26,3-1.85,3.84-3.42,1.79-6.98,2.25-10.7,1.02-1.17-.39-2.32-.82-3.5-1.14-2.19-.58-4.27-.41-6.05,1.19-.15.14-.32.26-.48.38-1.63,1.15-3.44,1.06-4.58-.24-1.14-1.29-1.11-3.2.24-4.6,2.35-2.44,5.28-3.63,9.63-3.73Z"/>
      <path d="M75.34,78.43c3.59.17,7.02.9,10.21,2.54,1.94,1,2.69,2.75,1.97,4.42-.75,1.71-2.62,2.33-4.71,1.56-1.05-.39-2.09-.84-3.16-1.18-3.78-1.2-7.37-.65-10.81,1.23-2.57,1.41-4.47,1.16-5.46-.7-.97-1.83-.14-3.77,2.32-5.11,3-1.64,6.22-2.6,9.64-2.75Z"/>
    </g>
    <g>
      <path class="st0" d="M31.91,136.26c-.27,0-.53,0-.8-.01-8.7-.23-15.3-6.37-15.68-14.6-.19-4.07,1.21-7.94,3.93-10.9,1.29-1.4,2.82-2.54,4.53-3.38-3.89-1.27-6.2-3.62-7.39-5.2-1.67-2.22-4.19-7.01-2.25-14.08.66-2.4,1.43-4.47,2.35-6.33,1.77-3.55,3.55-7.08,5.34-10.62,2.26-4.48,4.6-9.12,6.85-13.67,3.23-6.54,8.96-10.15,16.14-10.15h.41c11.63.23,23.92.39,37.57.52,3.76.03,7.14,1.08,9.96,3.03,1.4-1,2.95-1.84,4.61-2.48,4.01-1.55,8.05-2.33,12.02-2.33,3.38,0,6.64.58,9.7,1.7,2.52-1.42,5.28-2.56,8.26-3.4,1.49-.42,3.01-.63,4.52-.63,6.71,0,12.56,4.22,14.57,10.51.54,1.68.77,3.38.73,5.04.68.42,1.38.87,2.1,1.36,3.77,2.55,6.24,6.31,6.95,10.59.69,4.12-.32,8.24-2.85,11.6-.77,1.02-1.63,1.92-2.59,2.7-.17,6.08-3.89,11.56-9.88,13.8-1.71.64-3.5.97-5.31.97-.79,0-1.57-.06-2.34-.18-.77,1.43-1.62,2.86-2.56,4.28,6.21-.07,19.4-.21,19.4-.21.83,0,2.09.03,3.52.27,7.13,1.22,12.49,7.31,12.73,14.48.24,7.1-4.43,13.33-11.36,15.16-1.99.53-3.82.62-5.19.63-20.47.26-40.95.51-61.42.76l-42.43.53c-3,.04-5.99.09-8.99.15l-4.34.08c-.28,0-.55,0-.81,0Z"/>
      <path class="st0" d="M48.12,90.56c-4.3,0-8.4-1.86-11.26-5.09-5.32-6.02-5.07-14.99.59-20.87,4.63-4.81,10.52-7.23,18-7.4l1.61-.04,1.56.39c.2.05.45.1.73.16,1.27.27,3.13.67,5.13,1.35,1.48-.52,3.08-.83,4.75-.91.24-.01.48-.02.72-.02,6.94,0,12.98,4.67,14.69,11.37,1.79,7-1.38,14.01-7.9,17.43-3.9,2.05-7.98,3.09-12.11,3.09-2.67,0-5.34-.44-7.94-1.3-.25-.08-.5-.17-.76-.26-2.42,1.38-5.09,2.1-7.82,2.1Z"/>
      <path class="st0" d="M65.93,99.9c-5.59,0-10.5-2.98-13.16-7.98-4.06-7.67-.98-16.8,7.16-21.26,4.68-2.56,9.68-3.98,14.86-4.21l.55-.02.55.03c5.66.27,10.6,1.53,15.13,3.86,7.52,3.87,10.73,12.42,7.48,19.89-2.44,5.6-7.8,9.09-13.98,9.09-1.98,0-3.96-.36-5.89-1.08-.45-.17-.91-.35-1.36-.53-.49-.19-.96-.38-1.26-.47-.1-.03-.25-.07-.37-.07-.16,0-.52.1-1.04.39-2.88,1.58-5.8,2.38-8.68,2.38Z"/>
    </g>
    <g>
      <path class="st0" d="M38.91,143.26c-.27,0-.53,0-.8-.01-8.7-.23-15.3-6.37-15.68-14.6-.19-4.07,1.21-7.94,3.93-10.9,1.29-1.4,2.82-2.54,4.53-3.38-3.89-1.27-6.2-3.62-7.39-5.2-1.67-2.22-4.19-7.01-2.25-14.08.66-2.4,1.43-4.47,2.35-6.33,1.77-3.55,3.55-7.08,5.34-10.62,2.26-4.48,4.6-9.12,6.85-13.67,3.23-6.54,8.96-10.15,16.14-10.15h.41c11.63.23,23.92.39,37.57.52,3.76.03,7.14,1.08,9.96,3.03,1.4-1,2.95-1.84,4.61-2.48,4.01-1.55,8.05-2.33,12.02-2.33,3.38,0,6.64.58,9.7,1.7,2.52-1.42,5.28-2.56,8.26-3.4,1.49-.42,3.01-.63,4.52-.63,6.71,0,12.56,4.22,14.57,10.51.54,1.68.77,3.38.73,5.04.68.42,1.38.87,2.1,1.36,3.77,2.55,6.24,6.31,6.95,10.59.69,4.12-.32,8.24-2.85,11.6-.77,1.02-1.63,1.92-2.59,2.7-.17,6.08-3.89,11.56-9.88,13.8-1.71.64-3.5.97-5.31.97-.79,0-1.57-.06-2.34-.18-.77,1.43-1.62,2.86-2.56,4.28,6.21-.07,19.4-.21,19.4-.21.83,0,2.09.03,3.52.27,7.13,1.22,12.49,7.31,12.73,14.48.24,7.1-4.43,13.33-11.36,15.16-1.99.53-3.82.62-5.19.63-20.47.26-40.95.51-61.42.76l-42.43.53c-3,.04-5.99.09-8.99.15l-4.34.08c-.28,0-.55,0-.81,0Z"/>
      <path class="st0" d="M55.12,97.56c-4.3,0-8.4-1.86-11.26-5.09-5.32-6.02-5.07-14.99.59-20.87,4.63-4.81,10.52-7.23,18-7.4l1.61-.04,1.56.39c.2.05.45.1.73.16,1.27.27,3.13.67,5.13,1.35,1.48-.52,3.08-.83,4.75-.91.24-.01.48-.02.72-.02,6.94,0,12.98,4.67,14.69,11.37,1.79,7-1.38,14.01-7.9,17.43-3.9,2.05-7.98,3.09-12.11,3.09-2.67,0-5.34-.44-7.94-1.3-.25-.08-.5-.17-.76-.26-2.42,1.38-5.09,2.1-7.82,2.1Z"/>
      <path class="st0" d="M72.93,106.9c-5.59,0-10.5-2.98-13.16-7.98-4.06-7.67-.98-16.8,7.16-21.26,4.68-2.56,9.68-3.98,14.86-4.21l.55-.02.55.03c5.66.27,10.6,1.53,15.13,3.86,7.52,3.87,10.73,12.42,7.48,19.89-2.44,5.6-7.8,9.09-13.98,9.09-1.98,0-3.96-.36-5.89-1.08-.45-.17-.91-.35-1.36-.53-.49-.19-.96-.38-1.26-.47-.1-.03-.25-.07-.37-.07-.16,0-.52.1-1.04.39-2.88,1.58-5.8,2.38-8.68,2.38Z"/>
    </g>
    <g>
      <path class="st1" d="M39.24,117.61c.47-7.16.92-14.05,1.38-21.11-.62-.05-1.15-.13-1.69-.14-3.08-.04-6.15-.06-9.23-.1-3.48-.05-4.78-1.7-3.87-5.01.39-1.42.87-2.84,1.52-4.15,4.04-8.12,8.19-16.19,12.2-24.33,1.19-2.41,2.84-3.5,5.56-3.45,12.56.24,25.13.4,37.69.52,2.37.02,3.92.96,5.08,3.01,5.28,9.32,10.65,18.6,15.98,27.89.23.4.47.8.66,1.22,1.24,2.74-.24,5.18-3.27,5.23-3.54.06-7.08-.02-10.62-.04-.55,0-1.11,0-1.77,0v19.56h15.54c-.04-.73,0-1.29-.11-1.83-.76-3.84.32-7.26,2.58-10.28,1.93-2.58,4.1-4.98,6.19-7.44,3.52-4.16,5.69-8.97,6.8-14.28.17-.79.14-1.63.18-2.45.02-.39-.03-.77-.38-1.29-.84,1.42-1.67,2.85-2.51,4.27-.46.8-.86,1.64-1.39,2.39-1.06,1.48-2.75,1.92-4.19,1.18-1.49-.76-2.24-2.53-1.43-4.22,1.12-2.35,2.49-4.59,3.77-6.87.25-.44.54-.86,1.08-1.7-3.08,1.15-5.7,2.16-7.63,4.44-.33.39-.62.82-.97,1.19-1.23,1.3-2.99,1.56-4.32.68-1.4-.93-1.95-2.78-.92-4.35,1-1.52,2.22-2.98,3.62-4.12,2.78-2.26,6.06-3.6,9.55-4.43.35-.08.7-.15,1.05-.25.08-.02.14-.12.28-.26-1.78-1.92-4.06-2.62-6.52-2.44-2.54.18-5.06.49-6.84,2.85-.99,1.32-2.78,1.33-4.05.47-1.29-.87-1.76-2.55-1.05-4.11.93-2.06,2.52-3.49,4.61-4.29,5.6-2.16,12.55-2.59,18.32,2.47.39-.36.78-.72,1.18-1.09,2.7-2.49,5.89-4.07,9.39-5.05,2.09-.58,3.87.26,4.42,1.97.56,1.75-.36,3.39-2.37,4.24-1.65.7-3.33,1.33-4.9,2.18-1.04.56-1.9,1.45-2.76,2.38,3.92-1,7.74-.86,11.4.53,2.17.83,4.23,2.04,6.16,3.35,2.02,1.37,2.4,3.5,1.24,5.04-1.19,1.58-3.21,1.72-5.18.17-2.43-1.92-5.15-2.91-8.22-2.99-.38-.01-.77.06-1.56.13.79.41,1.22.63,1.65.85,4.26,2.13,6.78,5.69,8.13,10.14.57,1.86-.29,3.58-1.91,4.18-1.56.58-3.22-.11-4.11-1.8-.5-.95-.86-1.97-1.35-2.93-.94-1.86-2.4-3.14-4.55-4.03-.06.73-.13,1.31-.16,1.89-.43,7.22-3.39,13.45-7.66,19.11-1.66,2.21-3.59,4.22-5.44,6.28-2.56,2.86-3.51,6.07-2.14,9.97.43,0,.98,0,1.53,0,12.21-.13,24.41-.27,36.62-.4.72,0,1.45-.03,2.15.09,1.6.27,2.71,1.56,2.76,3.06.05,1.45-.89,2.75-2.43,3.15-.73.19-1.52.23-2.28.24-34.62.44-69.23.86-103.85,1.29-4.46.06-8.92.15-13.38.23-.36,0-.72.01-1.08,0-2.41-.06-3.93-1.26-4.02-3.16-.09-1.95,1.39-3.36,3.88-3.46,2.56-.1,5.12-.02,7.94-.02ZM95.88,90.52c-.11-.42-.12-.58-.19-.7-4.3-7.52-8.59-15.05-12.95-22.53-.26-.44-1.04-.82-1.59-.82-11.49-.17-22.97-.27-34.46-.43-1.04-.01-1.55.33-1.99,1.23-3.52,7.06-7.09,14.1-10.64,21.15-.19.38-.31.79-.51,1.3,20.87.27,41.52.54,62.34.8ZM69.03,97.22c.08.75.14,1.31.19,1.86.52,6.29-2.52,10.3-8.78,11.13-2.57.34-5.22.15-7.82.03-2.02-.1-4.04-.46-6.23-.73-.17,2.73-.33,5.29-.48,7.72h25.53c-.09-.65-.17-1.05-.19-1.45-.15-2.2-.39-4.39-.39-6.59,0-1.89,1.34-3.21,2.99-3.33,1.65-.12,3.06,1.08,3.4,2.92.11.6.14,1.22.2,1.83.19,2.08.38,4.16.56,6.22h4.06v-19.63h-5.68c2,2.11,2.27,3.7.93,5.12-1.16,1.22-3.13,1.32-4.25.07-.48-.53-.99-1.41-.88-2.01.21-1.11.87-2.13,1.32-3.16h-4.49ZM47.21,97.18c-.07,1.18-.1,2.1-.18,3.01-.24,2.62-.26,2.77,2.37,3,3.49.3,7.01.39,10.52.42,1.19,0,2.41-.58,2.59-1.96.16-1.25.03-2.55-.08-3.81-.02-.24-.54-.62-.83-.62-4.74-.04-9.48-.03-14.38-.03Z"/>
      <path class="st1" d="M55.73,69.19c1.17.29,3.31.63,5.31,1.37,2.44.9,4.75,1.09,7.13-.06.49-.24,1.08-.34,1.64-.37,1.53-.07,2.86.92,3.22,2.33.39,1.52-.26,3-1.85,3.84-3.42,1.79-6.98,2.25-10.7,1.02-1.17-.39-2.32-.82-3.5-1.14-2.19-.58-4.27-.41-6.05,1.19-.15.14-.32.26-.48.38-1.63,1.15-3.44,1.06-4.58-.24-1.14-1.29-1.11-3.2.24-4.6,2.35-2.44,5.28-3.63,9.63-3.73Z"/>
      <path class="st1" d="M75.34,78.43c3.59.17,7.02.9,10.21,2.54,1.94,1,2.69,2.75,1.97,4.42-.75,1.71-2.62,2.33-4.71,1.56-1.05-.39-2.09-.84-3.16-1.18-3.78-1.2-7.37-.65-10.81,1.23-2.57,1.41-4.47,1.16-5.46-.7-.97-1.83-.14-3.77,2.32-5.11,3-1.64,6.22-2.6,9.64-2.75Z"/>
    </g>
  </g>
</svg>